# xmcd CD database file
#
# Track frame offsets:
#	150
#	16779
#	34782
#	50734
#	76129
#	93559
#	118294
#	141567
#	158622
#	176097
#	196295
#
# Disc length: 2858 seconds
#
# Revision: 0
# Processed by: cddbd v1.5.2PL0 Copyright (c) Steve Scherf et al.
# Submitted via: CDex 1.70beta1
#
DISCID=920b280b
DTITLE=Barbara Stephan - I'm Awake
DYEAR=2008
DGENRE=Jazz
TTITLE0=Listen and Learn
TTITLE1=Don't Want To Wait
TTITLE2=I Wonder Why
TTITLE3=Footsteps On The Floor
TTITLE4=Taken
TTITLE5=It's Not What You Do
TTITLE6=Feather Bed
TTITLE7=Not With My Eyes
TTITLE8=I'm Awake
TTITLE9=Raindrops
TTITLE10=Do You Know
EXTD=YEAR: 2008
EXTT0=
EXTT1=
EXTT2=
EXTT3=
EXTT4=
EXTT5=
EXTT6=
EXTT7=
EXTT8=
EXTT9=
EXTT10=
PLAYORDER=
